<svg xmlns="http://www.w3.org/2000/svg" width="56" height="56" viewBox="0 0 56 56">
  <path id="codepen" d="M1.061,38.556,26.655,55.619a2.432,2.432,0,0,0,2.691,0L54.939,38.556a2.44,2.44,0,0,0,1.061-2V19.491a2.454,2.454,0,0,0-1.061-2L29.345.427a2.452,2.452,0,0,0-2.691,0L1.061,17.49a2.44,2.44,0,0,0-1.061,2V36.554a2.454,2.454,0,0,0,1.061,2ZM25.594,49.122,6.748,36.554l8.411-5.622L25.594,37.9Zm4.813,0V37.9l10.434-6.967,8.411,5.622ZM51.187,32.048l-6.027-4.025,6.027-4.036ZM30.406,6.924,49.252,19.491l-8.411,5.622L30.406,18.146ZM28,22.335l8.5,5.688L28,33.711l-8.5-5.688ZM25.594,6.924V18.146L15.159,25.113,6.748,19.491ZM4.812,24h0l6.037,4.025L4.812,32.059Z" transform="translate(0 -0.025)" fill="#303030"/>
</svg>
