<svg xmlns="http://www.w3.org/2000/svg" width="100" height="100" viewBox="0 0 100 100">
  <g id="computer" transform="translate(-0.001 0.001)">
    <path id="Path_3" data-name="Path 3" d="M74.595,60.735a4.334,4.334,0,1,0,4.334,4.333A4.338,4.338,0,0,0,74.595,60.735Zm0,5.713a1.38,1.38,0,1,1,1.38-1.38A1.382,1.382,0,0,1,74.595,66.448Zm0,0" transform="translate(-63.704 -55.068)" fill="#e9eef2"/>
    <path id="Path_4" data-name="Path 4" d="M192.815,60.735a4.334,4.334,0,1,0,4.333,4.333A4.339,4.339,0,0,0,192.815,60.735Zm0,5.713a1.38,1.38,0,1,1,1.38-1.38A1.381,1.381,0,0,1,192.815,66.448Zm0,0" transform="translate(-171.062 -55.068)" fill="#e9eef2"/>
    <path id="Path_5" data-name="Path 5" d="M311.041,60.735a4.334,4.334,0,1,0,4.334,4.333A4.338,4.338,0,0,0,311.041,60.735Zm0,5.713a1.38,1.38,0,1,1,1.38-1.38A1.382,1.382,0,0,1,311.041,66.448Zm0,0" transform="translate(-278.363 -55.068)" fill="#e9eef2"/>
    <path id="Path_6" data-name="Path 6" d="M98.426,28.9a1.465,1.465,0,0,0,1.464-1.466L100,6.446A6.451,6.451,0,0,0,93.56,0H6.442A6.453,6.453,0,0,0,0,6.447v70.89a6.456,6.456,0,0,0,5.462,6.374,6.382,6.382,0,0,0,.98.075H34.92V89.04H30.5a5.355,5.355,0,0,0-5.346,5.351v3.166A2.443,2.443,0,0,0,27.594,100h6.979a1.465,1.465,0,0,0,0-2.931H28.082V94.391A2.423,2.423,0,0,1,30.5,91.97H69.39a2.423,2.423,0,0,1,2.419,2.421v2.677H43.659a1.465,1.465,0,0,0,0,2.931H72.3a2.443,2.443,0,0,0,2.439-2.442V94.391a5.354,5.354,0,0,0-5.346-5.351H64.97V83.785H93.449a6.364,6.364,0,0,0,.979-.075,6.455,6.455,0,0,0,5.462-6.374V36.52a1.463,1.463,0,1,0-2.927,0V68.849H51.214V19.928H96.963v7.508A1.465,1.465,0,0,0,98.426,28.9ZM3.036,19.928H48.287V68.744H3.036ZM62.044,89.04h-24.2V83.786h24.2ZM96.963,71.78v5.557a3.522,3.522,0,0,1-3.156,3.5c-.118.011-.237.018-.359.018H6.442c-.121,0-.241-.006-.359-.018a3.522,3.522,0,0,1-3.156-3.5V71.78ZM49.751,17H3.036V6.446A3.52,3.52,0,0,1,6.55,2.929h86.9a3.52,3.52,0,0,1,3.514,3.518V17Zm0,0" fill="#e9eef2"/>
    <path id="Path_7" data-name="Path 7" d="M84.7,249.612h7.482a1.476,1.476,0,1,0,0-2.953H84.7a1.476,1.476,0,1,0,0,2.953Zm0,0" transform="translate(-75.453 -223.827)" fill="#e9eef2"/>
    <path id="Path_8" data-name="Path 8" d="M219.728,249.612h3.544a1.476,1.476,0,1,0,0-2.953h-3.544a1.476,1.476,0,1,0,0,2.953Zm0,0" transform="translate(-198.076 -223.827)" fill="#e9eef2"/>
    <path id="Path_9" data-name="Path 9" d="M157.135,302.51h-4.922a1.477,1.477,0,0,0,0,2.954h4.922a1.477,1.477,0,1,0,0-2.954Zm0,0" transform="translate(-136.668 -274.508)" fill="#e9eef2"/>
    <path id="Path_10" data-name="Path 10" d="M406.085,360.365h-4.922a1.476,1.476,0,1,0,0,2.953h4.922a1.476,1.476,0,1,0,0-2.953Zm0,0" transform="translate(-362.746 -327.008)" fill="#e9eef2"/>
    <path id="Path_11" data-name="Path 11" d="M252,303.987a1.477,1.477,0,0,0,1.476,1.476h11.813a1.477,1.477,0,1,0,0-2.954H253.48A1.477,1.477,0,0,0,252,303.987Zm0,0" transform="translate(-228.731 -274.508)" fill="#e9eef2"/>
    <path id="Path_12" data-name="Path 12" d="M201.365,361.841a1.477,1.477,0,0,0,1.477,1.476h2.56a1.476,1.476,0,0,0,0-2.953h-2.56A1.477,1.477,0,0,0,201.365,361.841Zm0,0" transform="translate(-182.749 -327.007)" fill="#e9eef2"/>
    <path id="Path_13" data-name="Path 13" d="M283.772,363.32a1.476,1.476,0,1,0,0-2.953h-7.087a1.476,1.476,0,1,0,0,2.953Zm0,0" transform="translate(-249.777 -327.009)" fill="#e9eef2"/>
    <path id="Path_14" data-name="Path 14" d="M93.656,566.929a1.476,1.476,0,0,0-1.476-1.476H84.7a1.476,1.476,0,1,0,0,2.953h7.482A1.477,1.477,0,0,0,93.656,566.929Zm0,0" transform="translate(-75.453 -513.109)" fill="#e9eef2"/>
    <path id="Path_15" data-name="Path 15" d="M219.728,565.451a1.476,1.476,0,1,0,0,2.953h3.544a1.476,1.476,0,1,0,0-2.953Zm0,0" transform="translate(-198.076 -513.108)" fill="#e9eef2"/>
    <path id="Path_16" data-name="Path 16" d="M158.612,622.78a1.477,1.477,0,0,0-1.477-1.476h-4.922a1.477,1.477,0,0,0,0,2.954h4.922A1.477,1.477,0,0,0,158.612,622.78Zm0,0" transform="translate(-136.668 -563.79)" fill="#e9eef2"/>
    <path id="Path_17" data-name="Path 17" d="M205.4,679.159h-2.56a1.476,1.476,0,1,0,0,2.953h2.56a1.476,1.476,0,0,0,0-2.953Zm0,0" transform="translate(-182.75 -616.29)" fill="#e9eef2"/>
    <path id="Path_18" data-name="Path 18" d="M406.085,679.159h-4.922a1.476,1.476,0,1,0,0,2.953h4.922a1.476,1.476,0,1,0,0-2.953Zm0,0" transform="translate(-362.746 -616.29)" fill="#e9eef2"/>
    <path id="Path_19" data-name="Path 19" d="M266.77,622.78a1.477,1.477,0,0,0-1.477-1.476H253.479a1.477,1.477,0,0,0,0,2.954h11.813A1.477,1.477,0,0,0,266.77,622.78Zm0,0" transform="translate(-228.729 -563.79)" fill="#e9eef2"/>
    <path id="Path_20" data-name="Path 20" d="M283.772,679.159h-7.087a1.476,1.476,0,1,0,0,2.953h7.087a1.476,1.476,0,1,0,0-2.953Zm0,0" transform="translate(-249.777 -616.29)" fill="#e9eef2"/>
    <path id="Path_21" data-name="Path 21" d="M84.7,435.825h4.135a1.476,1.476,0,1,0,0-2.953H84.7a1.476,1.476,0,1,0,0,2.953Zm0,0" transform="translate(-75.453 -392.802)" fill="#e9eef2"/>
    <path id="Path_22" data-name="Path 22" d="M189.948,434.347a1.476,1.476,0,0,0-1.476-1.476h-15.16a1.476,1.476,0,1,0,0,2.953h15.16A1.476,1.476,0,0,0,189.948,434.347Zm0,0" transform="translate(-155.972 -392.801)" fill="#e9eef2"/>
    <path id="Path_23" data-name="Path 23" d="M168.062,490.2a1.477,1.477,0,0,0-1.477-1.476H152.212a1.477,1.477,0,0,0,0,2.954h14.373A1.477,1.477,0,0,0,168.062,490.2Zm0,0" transform="translate(-136.668 -443.484)" fill="#e9eef2"/>
    <path id="Path_24" data-name="Path 24" d="M350.526,491.677h2.756a1.477,1.477,0,1,0,0-2.954h-2.756a1.477,1.477,0,1,0,0,2.954Zm0,0" transform="translate(-316.781 -443.483)" fill="#e9eef2"/>
    <path id="Path_25" data-name="Path 25" d="M618.167,611.643h-9.45a1.476,1.476,0,1,0,0,2.953h9.45a1.476,1.476,0,1,0,0-2.953Zm0,0" transform="translate(-551.144 -555.024)" fill="#e9eef2"/>
    <path id="Path_26" data-name="Path 26" d="M785.653,611.643h-18.7a1.476,1.476,0,1,0,0,2.953h18.7a1.476,1.476,0,1,0,0-2.953Zm0,0" transform="translate(-694.932 -555.024)" fill="#e9eef2"/>
    <path id="Path_27" data-name="Path 27" d="M618.167,672.824h-9.45a1.477,1.477,0,1,0,0,2.954h9.45a1.477,1.477,0,1,0,0-2.954Zm0,0" transform="translate(-551.144 -610.542)" fill="#e9eef2"/>
    <path id="Path_28" data-name="Path 28" d="M785.653,672.824h-18.7a1.477,1.477,0,0,0,0,2.954h18.7a1.477,1.477,0,1,0,0-2.954Zm0,0" transform="translate(-694.932 -610.542)" fill="#e9eef2"/>
    <path id="Path_29" data-name="Path 29" d="M643.268,250.475a3.82,3.82,0,0,0-3.815-3.816H610.569a3.82,3.82,0,0,0-3.816,3.816v23.5a3.82,3.82,0,0,0,3.816,3.816h28.884a3.82,3.82,0,0,0,3.815-3.816Zm-2.953,23.5a.863.863,0,0,1-.862.862H610.569a.863.863,0,0,1-.862-.862v-2.887l10.816-10.81,7.465,8.412a1.477,1.477,0,1,0,2.209-1.96l-.677-.763,3.338-3.336,7.459,8.406Zm0-7.388-5.683-6.4a2.338,2.338,0,0,0-3.4-.1l-3.675,3.673-5.258-5.924a2.339,2.339,0,0,0-3.4-.1l-9.189,9.185V250.475a.863.863,0,0,1,.862-.863h28.884a.863.863,0,0,1,.862.863Zm0,0" transform="translate(-551.026 -223.902)" fill="#e9eef2"/>
  </g>
</svg>
