<svg id="design" xmlns="http://www.w3.org/2000/svg" width="100" height="100" viewBox="0 0 100 100">
  <path id="Path_30" data-name="Path 30" d="M309.981,346a3.981,3.981,0,1,0,3.981,3.981A3.983,3.983,0,0,0,309.981,346Zm0,0" transform="translate(-248.757 -281.275)" fill="#e9eef2"/>
  <path id="Path_31" data-name="Path 31" d="M90.234,0H9.766A9.777,9.777,0,0,0,0,9.766V69.531A9.777,9.777,0,0,0,9.766,79.3H40.234v8.984H38.281a9.768,9.768,0,0,0-9.766,9.766A1.953,1.953,0,0,0,30.469,100H69.531a1.953,1.953,0,0,0,1.953-1.953,9.777,9.777,0,0,0-9.766-9.766H59.766V79.3H90.234A9.777,9.777,0,0,0,100,69.531V9.766A9.777,9.777,0,0,0,90.234,0ZM9.766,3.906H90.234a5.866,5.866,0,0,1,5.859,5.859v50H87.109V14.844a1.953,1.953,0,0,0-1.953-1.953H69.531a1.953,1.953,0,0,0-1.953,1.953V59.766H57.8c-.021-2.02-.073-4.012-.157-5.943A125.627,125.627,0,0,0,56.119,38.2a9.767,9.767,0,0,0,2.666-12.739l-6.77-11.725a1.953,1.953,0,0,0-3.383,0L41.86,25.458a9.765,9.765,0,0,0,2.149,12.325,123.983,123.983,0,0,0-1.646,16.035c-.088,1.952-.143,3.945-.165,5.947H32.422v-29.3a1.943,1.943,0,0,0-.193-.843c-.005-.01-.008-.021-.013-.031L24.4,13.97a1.954,1.954,0,0,0-3.494,0L13.1,29.6c0,.01-.008.021-.012.031a1.941,1.941,0,0,0-.194.843v29.3H3.906v-50A5.866,5.866,0,0,1,9.766,3.906ZM71.484,59.766V16.8H83.2V20.7H81.25a1.953,1.953,0,0,0,0,3.906H83.2v5.859H81.25a1.953,1.953,0,1,0,0,3.906H83.2v5.859H81.25a1.953,1.953,0,1,0,0,3.906H83.2v7.813H81.25a1.953,1.953,0,0,0,0,3.906H83.2v3.906ZM50.324,40.1a9.779,9.779,0,0,0,2.107-.234c.362,2.323.895,6.434,1.21,12.088h-7.27c.33-5.65.888-9.825,1.273-12.227a9.778,9.778,0,0,0,2.679.373Zm0-3.906a5.867,5.867,0,0,1-5.08-8.783l5.08-8.8L55.4,27.409a5.863,5.863,0,0,1-5.077,8.784ZM46.192,55.859h7.621c.041,1.283.069,2.589.083,3.906H46.1c.014-1.309.044-2.615.088-3.906ZM24.609,59.766V32.422h3.906V59.766Zm-7.812,0V32.422H20.7V59.766ZM18,28.516l4.652-9.3,4.652,9.3ZM67.243,96.094H32.754a5.871,5.871,0,0,1,5.527-3.906H61.719a5.869,5.869,0,0,1,5.524,3.906ZM55.859,88.281H44.14V79.3H55.859ZM90.234,75.391H9.765a5.866,5.866,0,0,1-5.859-5.859V63.672H96.094v5.859A5.866,5.866,0,0,1,90.234,75.391Zm0,0" fill="#e9eef2"/>
  <path id="Path_32" data-name="Path 32" d="M233.869,346H209.981a3.981,3.981,0,1,0,0,7.963h23.888a3.981,3.981,0,0,0,0-7.963Zm0,0" transform="translate(-173.503 -281.275)" fill="#e9eef2"/>
</svg>
