<svg id="Group_1" data-name="Group 1" xmlns="http://www.w3.org/2000/svg" width="60.922" height="60.922" viewBox="0 0 60.922 60.922">
  <path id="Shape" d="M69.314,44.1A25.214,25.214,0,1,0,94.527,69.314,25.218,25.218,0,0,0,69.314,44.1Zm8.4,14.707H64.066v8.4H71.42a3.153,3.153,0,0,1,0,6.306H64.066v9.448a3.153,3.153,0,0,1-6.306,0V55.654A3.159,3.159,0,0,1,60.913,52.5h16.8a3.153,3.153,0,0,1,0,6.306Z" transform="translate(-38.853 -38.853)" fill="#eef1f6"/>
  <path id="Path_1" data-name="Path 1" d="M30.461,0A30.461,30.461,0,1,0,60.922,30.461,30.459,30.459,0,0,0,30.461,0Zm0,57.769A27.308,27.308,0,1,1,57.769,30.461,27.3,27.3,0,0,1,30.461,57.769Z" fill="#eef1f6"/>
</svg>
