<svg xmlns="http://www.w3.org/2000/svg" width="56" height="56" viewBox="0 0 56 56">
  <g id="github" transform="translate(-421 52)">
    <path id="Path_2" data-name="Path 2" d="M28,0A28,28,0,1,0,56,28,27.992,27.992,0,0,0,28,0Zm7.841,49.312c-.154-2.191-.346-4.9-.346-6A5.338,5.338,0,0,0,33.3,38.954c8.091-.673,11.934-5.15,12.2-11.05A11.085,11.085,0,0,0,42.029,19.2a46.994,46.994,0,0,0-.25-6.9c-1.826-.519-6.073,1.71-7.264,2.671-2.5-.98-8.629-1.307-12.357,0-2.633-1.864-5.65-3-7.283-2.69a8.73,8.73,0,0,0-.25,6.9c-1.941,1.787-4.67,3.978-3.92,8.571,1.191,6.726,5.919,10.358,13.548,11.261a2.442,2.442,0,0,0-2.037,2.075C17.084,43.2,15.624,39.78,14.99,38.9c-2.152-2.652-4.074-1.883-4.189-1.845a.323.323,0,0,0-.192.288c.115.577,1.288,1.153,1.345,1.211,1.6,1.191,2.172,3.325,2.537,3.92,2.268,3.747,7.572,2.191,7.61,2.229,0,.327-.038,3.075-.077,5.227a22.767,22.767,0,1,1,13.817-.615Z" transform="translate(421 -52)" fill="#303030"/>
  </g>
</svg>
