<svg xmlns="http://www.w3.org/2000/svg" width="100" height="100" viewBox="0 0 100 100">
  <g id="Online_store" data-name="Online store" transform="translate(-36 -36)">
    <path id="Path_33" data-name="Path 33" d="M134.333,46a1.667,1.667,0,0,0-1.667,1.667v56.667a5,5,0,0,1-5,5H44.333a5,5,0,0,1-5-5v-60a5,5,0,0,1,5-5H116A1.667,1.667,0,1,0,116,36H44.333A8.343,8.343,0,0,0,36,44.333v60a8.343,8.343,0,0,0,8.333,8.333H72.667v10H61A8.343,8.343,0,0,0,52.667,131v3.333A1.667,1.667,0,0,0,54.333,136h63.333a1.667,1.667,0,0,0,1.667-1.667V131A8.343,8.343,0,0,0,111,122.667H99.333v-10h28.333A8.343,8.343,0,0,0,136,104.333V47.667A1.667,1.667,0,0,0,134.333,46ZM116,131v1.667H56V131a5,5,0,0,1,5-5h50a5,5,0,0,1,5,5Zm-20-8.333H76v-10H96Z" transform="translate(0 0)" fill="#e9eef2"/>
    <path id="Path_34" data-name="Path 34" d="M193.958,165.924V113.266a1.656,1.656,0,1,0-3.306,0v50.9H111.306V122.042h26.449a1.758,1.758,0,0,0,0-3.511H111.306v-7.021h69.428a1.758,1.758,0,0,0,0-3.511H109.653A1.706,1.706,0,0,0,108,109.755v56.168a1.706,1.706,0,0,0,1.653,1.755H192.3A1.706,1.706,0,0,0,193.958,165.924Z" transform="translate(-64.979 -64.979)" fill="#e9eef2"/>
    <path id="Path_35" data-name="Path 35" d="M532.532,725.266a5.266,5.266,0,1,0-5.266,5.266A5.266,5.266,0,0,0,532.532,725.266Zm-5.266,1.755a1.755,1.755,0,1,1,1.755-1.755A1.755,1.755,0,0,1,527.266,727.021Z" transform="translate(-441.266 -621.041)" fill="#e9eef2"/>
    <path id="Path_36" data-name="Path 36" d="M469.5,48.014a1.5,1.5,0,0,0-1.457,1.867l6.007,24.028a1.5,1.5,0,0,0,1.457,1.137h2.673a4.505,4.505,0,1,0,6.668,0h8.35a4.505,4.505,0,1,0,6.668,0h2.673c.033,0,.062-.017.095-.02a1.439,1.439,0,0,0,.159.02,1.5,1.5,0,0,0,1.458-1.144L512.805,39h7.757a1.5,1.5,0,1,0,0-3h-8.934a1.5,1.5,0,0,0-1.46,1.144L507.5,48.014Zm36.161,7.509h-5.725l.844-4.505h5.986Zm-2.208,9.011h-5.207l1.126-6.007h5.556Zm-1.841,7.509h-4.78l.846-4.505h5.032ZM473.3,58.526h5.372l1.126,6.007h-5Zm8.426,0h5.794v6.007h-4.667Zm5.794-3h-6.357l-.852-4.505h7.208Zm3-4.505h7.208l-.845,4.505h-6.363Zm0,7.509h5.794l-1.126,6.007h-4.667Zm-13.259-7.509.844,4.505h-5.556l-1.126-4.505Zm-1.712,16.519h4.806l.845,4.505h-4.525Zm5.96,12.014a1.5,1.5,0,1,1,1.5-1.5A1.5,1.5,0,0,1,481.516,79.551Zm2.747-7.509-.844-4.505h4.1v4.505Zm6.264-4.505h4.1l-.844,4.505h-3.26Zm6.007,12.014a1.5,1.5,0,1,1,1.5-1.5A1.5,1.5,0,0,1,496.534,79.551Z" transform="translate(-387.064 3)" fill="#e9eef2"/>
    <path id="Path_37" data-name="Path 37" d="M163.755,162a1.755,1.755,0,1,0,0,3.511h1.755a1.755,1.755,0,0,0,0-3.511Z" transform="translate(-113.713 -113.713)" fill="#e9eef2"/>
    <path id="Path_38" data-name="Path 38" d="M235.755,162a1.755,1.755,0,1,0,0,3.511h1.755a1.755,1.755,0,0,0,0-3.511Z" transform="translate(-179.718 -113.713)" fill="#e9eef2"/>
    <path id="Path_39" data-name="Path 39" d="M307.755,162a1.755,1.755,0,0,0,0,3.511h1.755a1.755,1.755,0,1,0,0-3.511Z" transform="translate(-245.07 -113.713)" fill="#e9eef2"/>
    <path id="Path_40" data-name="Path 40" d="M217.755,341.553h21.063a1.755,1.755,0,0,0,1.755-1.755V325.755A1.755,1.755,0,0,0,238.818,324H217.755A1.755,1.755,0,0,0,216,325.755V339.8A1.755,1.755,0,0,0,217.755,341.553Zm1.755-14.042h17.553v10.532H219.511Z" transform="translate(-163.603 -261.617)" fill="#e9eef2"/>
    <path id="Path_41" data-name="Path 41" d="M217.755,543.511h28.084a1.755,1.755,0,0,0,0-3.511H217.755a1.755,1.755,0,0,0,0,3.511Z" transform="translate(-163.713 -457.419)" fill="#e9eef2"/>
    <path id="Path_42" data-name="Path 42" d="M217.755,615.51H252.86a1.755,1.755,0,0,0,0-3.51H217.755a1.755,1.755,0,1,0,0,3.51Z" transform="translate(-163.846 -522.764)" fill="#e9eef2"/>
    <path id="Path_43" data-name="Path 43" d="M685.755,612a1.755,1.755,0,0,0,0,3.51h24.574a1.755,1.755,0,1,0,0-3.51Z" transform="translate(-590.126 -522.764)" fill="#e9eef2"/>
  </g>
</svg>
